<?xml version="1.0" standalone="no"?>
<!DOCTYPE svg PUBLIC "-//W3C//DTD SVG 20010904//EN"
 "http://www.w3.org/TR/2001/REC-SVG-20010904/DTD/svg10.dtd">
<svg version="1.0" xmlns="http://www.w3.org/2000/svg"
 width="500.000000pt" height="500.000000pt" viewBox="0 0 500.000000 500.000000"
 preserveAspectRatio="xMidYMid meet">
<metadata>
Created by potrace 1.14, written by Peter Selinger 2001-2017
</metadata>
<g transform="translate(0.000000,500.000000) scale(0.100000,-0.100000)"
fill="#000000" stroke="none">
<path d="M1655 3828 l-40 -43 43 40 c39 36 47 45 39 45 -2 0 -21 -19 -42 -42z"/>
<path d="M1280 3837 c0 -8 6 -14 14 -14 8 0 12 6 9 14 -3 7 -9 13 -14 13 -5 0
-9 -6 -9 -13z"/>
<path d="M1487 3673 c-10 -9 -9 -33 1 -33 4 0 8 9 9 20 2 21 0 24 -10 13z"/>
<path d="M1280 3486 c0 -6 -3 -21 -6 -33 -10 -36 10 -27 22 10 8 26 7 34 -3
34 -7 0 -13 -5 -13 -11z"/>
<path d="M2070 2285 l0 -205 25 0 c24 0 24 2 27 93 l3 92 43 -2 c38 -2 42 0
42 22 0 23 -2 24 -45 18 l-45 -6 0 76 0 76 47 3 c36 2 49 7 51 21 3 15 -6 17
-72 17 l-76 0 0 -205z"/>
<path d="M2322 2304 l3 -186 28 -24 c15 -13 36 -24 46 -24 11 0 24 -13 32 -32
7 -18 57 -81 111 -141 102 -114 112 -131 106 -188 -2 -27 -10 -37 -38 -51 -72
-36 -219 -13 -228 35 -5 24 31 62 91 97 65 37 42 49 -24 14 -55 -31 -99 -76
-99 -103 0 -61 118 -103 225 -81 98 20 130 91 81 176 l-24 42 37 6 c70 11 71
11 71 -46 1 -59 19 -120 45 -148 37 -41 116 -34 198 17 l37 23 10 -24 c12 -33
52 -43 85 -22 15 10 46 16 82 16 55 0 126 23 161 53 8 6 37 12 64 13 48 1 49
0 43 -26 -16 -72 115 -85 236 -24 45 22 47 22 52 5 10 -38 56 -56 142 -56 71
0 88 4 155 36 41 20 86 45 99 56 41 34 8 33 -47 -1 -96 -61 -222 -85 -292 -56
-43 18 -37 36 14 49 52 13 80 44 65 73 -14 27 -41 22 -95 -17 -92 -65 -132
-86 -192 -97 -32 -6 -71 -8 -87 -4 -25 6 -27 10 -20 39 15 67 13 69 -58 51
-27 -6 -28 -6 -21 34 7 47 -8 62 -37 36 -11 -10 -19 -30 -19 -50 0 -39 -38
-67 -117 -85 -71 -17 -103 -7 -103 31 0 23 -5 30 -19 30 -11 0 -21 5 -23 12
-5 13 -11 9 -128 -70 -99 -66 -174 -54 -195 31 -8 29 19 116 39 129 6 4 49 8
94 8 63 0 83 3 79 13 -3 9 -27 11 -86 9 -44 -2 -81 0 -81 5 0 4 7 30 15 57 21
70 19 101 -8 119 -17 11 -30 38 -47 96 -22 79 -22 81 -4 108 14 21 19 46 19
101 0 68 -2 75 -28 98 -22 19 -39 24 -83 24 l-54 0 0 -156 0 -157 -37 7 c-21
3 -50 6 -65 6 l-28 0 0 150 c0 143 -1 150 -20 150 -19 0 -20 -7 -20 -154 0
-143 -2 -157 -22 -190 -13 -19 -28 -35 -33 -36 -30 -1 -35 26 -35 202 l0 178
-26 0 -26 0 4 -186z m418 127 c5 -11 10 -44 10 -75 0 -45 -4 -58 -22 -70 -43
-30 -48 -22 -48 74 0 89 0 90 25 90 14 0 29 -8 35 -19z m-15 -243 c8 -28 15
-53 15 -55 0 -2 -13 3 -30 12 -26 13 -30 21 -30 55 0 59 26 53 45 -12z m-117
-34 c17 -5 22 -14 22 -40 0 -29 3 -34 24 -34 19 0 25 6 28 26 l3 26 55 -37
c30 -21 56 -39 57 -40 2 -1 -6 -19 -17 -40 -11 -22 -20 -45 -20 -52 0 -9 -19
-13 -65 -13 -36 0 -65 -4 -65 -10 0 -13 64 -24 95 -16 20 5 25 3 25 -12 0 -31
-22 -42 -86 -42 l-62 0 -71 76 c-81 87 -93 115 -63 147 11 12 23 32 27 45 5
18 13 22 48 22 23 0 52 -3 65 -6z m203 -177 c-18 -18 -23 -1 -9 29 13 28 13
28 16 5 2 -13 -1 -28 -7 -34z m-12 -67 c-10 -27 -29 -42 -29 -22 1 24 14 52
26 52 10 0 11 -6 3 -30z m-19 -69 c0 -6 -4 -13 -10 -16 -5 -3 -10 1 -10 9 0 9
5 16 10 16 6 0 10 -4 10 -9z m1071 -91 c-13 -11 -33 -20 -45 -20 -20 0 -20 1
4 20 14 11 34 20 45 19 19 0 19 -1 -4 -19z m-758 -30 c-3 -11 0 -26 6 -33 13
-16 5 -27 -21 -27 -26 0 -33 26 -14 55 20 30 36 33 29 5z"/>
<path d="M2920 2286 l0 -206 25 0 25 0 0 143 1 142 46 -142 c42 -129 49 -143
70 -143 l23 0 0 205 c0 197 -1 205 -20 205 -18 0 -20 -8 -22 -142 l-3 -143
-46 140 c-43 130 -49 140 -73 143 l-26 3 0 -205z"/>
<path d="M3250 2285 c0 -198 1 -205 20 -205 19 0 20 7 20 205 0 198 -1 205
-20 205 -19 0 -20 -7 -20 -205z"/>
<path d="M3400 2470 c0 -16 7 -20 30 -20 l30 0 0 -185 c0 -178 1 -185 20 -185
19 0 20 7 20 185 l0 185 30 0 c23 0 30 4 30 20 0 18 -7 20 -80 20 -73 0 -80
-2 -80 -20z"/>
<path d="M3662 2312 c2 -147 6 -182 20 -204 33 -50 122 -45 147 8 7 16 11 91
11 199 0 168 -1 175 -20 175 -19 0 -20 -7 -20 -168 0 -178 -8 -212 -50 -212
-34 0 -40 33 -40 209 l0 171 -26 0 -26 0 4 -178z"/>
<path d="M3970 2285 l0 -205 25 0 c25 0 25 1 25 80 0 63 3 80 15 80 13 0 55
-114 55 -149 0 -6 11 -11 25 -11 30 0 30 -4 4 84 -21 69 -21 71 -3 105 13 24
19 55 19 104 0 63 -2 71 -28 93 -22 19 -39 24 -83 24 l-54 0 0 -205z m110 146
c5 -11 10 -44 10 -75 0 -45 -4 -58 -22 -70 -43 -30 -48 -22 -48 74 0 89 0 90
25 90 14 0 29 -8 35 -19z"/>
<path d="M4260 2285 l0 -205 75 0 c68 0 75 2 75 20 0 17 -7 20 -50 20 l-51 0
3 73 3 72 43 3 c28 2 42 8 42 18 0 10 -12 14 -45 14 l-45 0 0 75 0 75 50 0
c43 0 50 3 50 20 0 18 -7 20 -75 20 l-75 0 0 -205z"/>
<path d="M1973 1400 c0 -25 2 -35 4 -22 2 12 2 32 0 45 -2 12 -4 2 -4 -23z"/>
</g>
</svg>
